<svg width="48" height="48" viewBox="0 0 48 48" fill="none" xmlns="http://www.w3.org/2000/svg">
<path d="M28.26 22.6802C29.04 19.4002 26.18 16.5401 22.9 17.3201C21.36 17.7001 20.1 18.9601 19.72 20.5001C18.94 23.7801 21.7999 26.6401 25.0799 25.8601C26.6399 25.4801 27.9 24.2202 28.26 22.6802Z" stroke="currentColor" stroke-width="2" stroke-linecap="round" stroke-linejoin="round"/>
<path d="M36.0199 34.38C39.4399 31.18 41.5799 26.64 41.5799 21.58C41.5799 11.86 33.6999 4 23.9999 4C14.2999 4 6.41992 11.88 6.41992 21.58C6.41992 26.66 8.57992 31.2399 12.0399 34.4399" stroke="currentColor" stroke-width="2" stroke-linecap="round" stroke-linejoin="round"/>
<path d="M16 29.0996C14.16 27.1396 13.02 24.4996 13.02 21.5796C13.02 15.5196 17.94 10.5996 24 10.5996C30.06 10.5996 34.98 15.5196 34.98 21.5796C34.98 24.4996 33.84 27.1196 32 29.0996" stroke="currentColor" stroke-width="2" stroke-linecap="round" stroke-linejoin="round"/>
<path d="M20.6 33.3205L17.72 36.9006C15.44 39.7606 17.4599 43.9806 21.1199 43.9806H26.8599C30.5199 43.9806 32.56 39.7406 30.26 36.9006L27.38 33.3205C25.66 31.1405 22.34 31.1405 20.6 33.3205Z" stroke="currentColor" stroke-width="2" stroke-linecap="round" stroke-linejoin="round"/>
</svg>
