<svg width="40" height="40" viewBox="0 0 40 40" fill="none" xmlns="http://www.w3.org/2000/svg">
<path d="M23.332 3.3335H14.9987C6.66536 3.3335 3.33203 6.66683 3.33203 15.0002V25.0002C3.33203 33.3335 6.66536 36.6668 14.9987 36.6668" stroke="#024FFA" stroke-width="2" stroke-linecap="round" stroke-linejoin="round"/>
<path d="M36.6641 16.667V21.667" stroke="#024FFA" stroke-width="2" stroke-linecap="round" stroke-linejoin="round"/>
<path d="M36.6654 16.6668H29.9987C24.9987 16.6668 23.332 15.0002 23.332 10.0002V3.3335L36.6654 16.6668Z" stroke="#024FFA" stroke-width="2" stroke-linecap="round" stroke-linejoin="round"/>
<path d="M22.9336 30.4334C19.0169 30.7167 19.0169 36.3834 22.9336 36.6667H32.2003C33.3169 36.6667 34.4169 36.25 35.2336 35.5C37.9836 33.1 36.5169 28.3 32.9003 27.85C31.6003 20.0334 20.3003 23 22.9669 30.45" stroke="#024FFA" stroke-width="2" stroke-miterlimit="10" stroke-linecap="round" stroke-linejoin="round"/>
</svg>
