<svg width="48" height="48" viewBox="0 0 48 48" fill="none" xmlns="http://www.w3.org/2000/svg">
<path d="M14 16H8C5.8 16 4 14.2 4 12V8C4 5.8 5.8 4 8 4H14C16.2 4 18 5.8 18 8V12C18 14.2 16.2 16 14 16Z" stroke="currentColor" stroke-width="2" stroke-linecap="round" stroke-linejoin="round"/>
<path d="M41.6 14H34.4C33.08 14 32 12.92 32 11.6V8.40002C32 7.08002 33.08 6 34.4 6H41.6C42.92 6 44 7.08002 44 8.40002V11.6C44 12.92 42.92 14 41.6 14Z" stroke="currentColor" stroke-width="2" stroke-linecap="round" stroke-linejoin="round"/>
<path d="M41.6 29H34.4C33.08 29 32 27.92 32 26.6V23.4C32 22.08 33.08 21 34.4 21H41.6C42.92 21 44 22.08 44 23.4V26.6C44 27.92 42.92 29 41.6 29Z" stroke="currentColor" stroke-width="2" stroke-linecap="round" stroke-linejoin="round"/>
<path d="M18 10H32" stroke="currentColor" stroke-width="2" stroke-miterlimit="10" stroke-linecap="round" stroke-linejoin="round"/>
<path d="M25 10V36C25 38.2 26.8 40 29 40H32" stroke="currentColor" stroke-width="2" stroke-miterlimit="10" stroke-linecap="round" stroke-linejoin="round"/>
<path d="M25 25H32" stroke="currentColor" stroke-width="2" stroke-miterlimit="10" stroke-linecap="round" stroke-linejoin="round"/>
<path d="M41.6 44H34.4C33.08 44 32 42.92 32 41.6V38.4C32 37.08 33.08 36 34.4 36H41.6C42.92 36 44 37.08 44 38.4V41.6C44 42.92 42.92 44 41.6 44Z" stroke="currentColor" stroke-width="2" stroke-linecap="round" stroke-linejoin="round"/>
</svg>
