<svg width="32" height="32" viewBox="0 0 32 32" fill="none" xmlns="http://www.w3.org/2000/svg">
<g clip-path="url(#clip0_1412_49870)">
<path d="M16.0005 0C13.8106 0.00211856 11.711 0.873089 10.1626 2.42172C8.6142 3.97035 7.74357 6.07008 7.7418 8.26C7.74463 10.4495 8.61591 12.5484 10.1645 14.0962C11.713 15.644 13.8123 16.5142 16.0018 16.516C18.1908 16.5135 20.2894 15.643 21.8374 14.0952C23.3854 12.5475 24.2563 10.449 24.2591 8.26C24.2574 6.07032 23.3869 3.97078 21.8388 2.42219C20.2907 0.873598 18.1915 0.00247151 16.0018 0L16.0005 0ZM16.0005 4.84C16.9073 4.84071 17.7768 5.20125 18.418 5.84247C19.0592 6.4837 19.4198 7.35318 19.4205 8.26C19.4191 9.16625 19.0584 10.035 18.4176 10.6758C17.7768 11.3166 16.9081 11.6773 16.0018 11.6787C15.0953 11.6776 14.2262 11.3171 13.5851 10.6763C12.944 10.0354 12.5832 9.16648 12.5818 8.26C12.5829 7.35341 12.9436 6.48427 13.5847 5.84334C14.2259 5.2024 15.0952 4.84204 16.0018 4.84133L16.0005 4.84ZM9.07647 16.8C8.55796 16.8154 8.05813 16.997 7.65075 17.3182C7.24338 17.6394 6.95006 18.083 6.81408 18.5836C6.67809 19.0842 6.70666 19.6152 6.89555 20.0983C7.08445 20.5815 7.42366 20.9911 7.86313 21.2667C9.33859 22.1941 10.96 22.8658 12.6591 23.2533L8.04313 27.8707C7.60079 28.3269 7.35563 28.9387 7.36059 29.5742C7.36555 30.2096 7.62024 30.8176 8.06965 31.2668C8.51907 31.716 9.12714 31.9705 9.76256 31.9752C10.398 31.9799 11.0098 31.7345 11.4658 31.292L16.0005 26.7547L20.5405 31.292C20.7649 31.5165 21.0314 31.6945 21.3247 31.816C21.618 31.9375 21.9323 32 22.2498 32C22.5673 32 22.8816 31.9375 23.1749 31.816C23.4682 31.6945 23.7347 31.5165 23.9591 31.292C24.9058 30.3467 24.9058 28.8147 23.9591 27.8707L19.3431 23.2547C21.0419 22.8674 22.663 22.1957 24.1378 21.268C24.4068 21.0989 24.6399 20.8784 24.8237 20.6192C25.0076 20.3599 25.1385 20.067 25.2092 19.7572C25.2798 19.4474 25.2887 19.1267 25.2354 18.8134C25.1821 18.5001 25.0676 18.2004 24.8985 17.9313C24.7293 17.6623 24.5088 17.4292 24.2496 17.2454C23.9904 17.0616 23.6975 16.9306 23.3877 16.86C23.0778 16.7893 22.7571 16.7804 22.4438 16.8337C22.1305 16.887 21.8308 17.0015 21.5618 17.1707C19.8946 18.2129 17.968 18.7655 16.0018 18.7655C14.0356 18.7655 12.109 18.2129 10.4418 17.1707C10.0178 16.904 9.54313 16.784 9.07647 16.8Z" fill="#E89900"/>
</g>
<defs>
<clipPath id="clip0_1412_49870">
<rect width="32" height="32" fill="white"/>
</clipPath>
</defs>
</svg>
