<svg width="48" height="48" viewBox="0 0 48 48" fill="none" xmlns="http://www.w3.org/2000/svg">
<path d="M44 23.78V25.56C44 32.68 42.22 34.44 35.12 34.44H12.88C5.78 34.44 4 32.66 4 25.56V12.88C4 5.78 5.78 4 12.88 4H16" stroke="currentColor" stroke-width="2" stroke-linecap="round" stroke-linejoin="round"/>
<path d="M24 34.4404V44.0004" stroke="currentColor" stroke-width="2" stroke-linecap="round" stroke-linejoin="round"/>
<path d="M4 26H44" stroke="currentColor" stroke-width="2" stroke-linecap="round" stroke-linejoin="round"/>
<path d="M15 44H33" stroke="currentColor" stroke-width="2" stroke-linecap="round" stroke-linejoin="round"/>
<path d="M35.72 18.7405H26.2C23.44 18.7405 22.52 16.9005 22.52 15.0605V8.02051C22.52 5.82051 24.32 4.02051 26.52 4.02051H35.72C37.76 4.02051 39.4 5.66051 39.4 7.70051V15.0605C39.4 17.1005 37.76 18.7405 35.72 18.7405Z" stroke="currentColor" stroke-width="2" stroke-linecap="round" stroke-linejoin="round"/>
<path d="M41.8199 15.84L39.3999 14.14V8.61995L41.8199 6.91995C43.0199 6.09995 43.9999 6.59995 43.9999 8.05995V14.72C43.9999 16.18 43.0199 16.68 41.8199 15.84Z" stroke="currentColor" stroke-width="2" stroke-linecap="round" stroke-linejoin="round"/>
</svg>
