<svg width="32" height="32" viewBox="0 0 32 32" fill="none" xmlns="http://www.w3.org/2000/svg">
<path d="M28.6707 24.5081H25.6293C24.4787 24.5081 24.132 23.5761 22.0693 21.5121C20.2667 19.7748 19.5053 19.5588 19.0493 19.5588C18.4187 19.5588 18.2467 19.7321 18.2467 20.6001V23.3361C18.2467 24.0761 18.0067 24.5095 16.0733 24.5095C14.1977 24.3834 12.3789 23.8137 10.7666 22.847C9.15437 21.8803 7.79483 20.5445 6.8 18.9495C4.43785 16.0095 2.79428 12.5589 2 8.87212C2 8.41612 2.17333 8.00279 3.04267 8.00279H6.08267C6.864 8.00279 7.14533 8.35079 7.452 9.15479C8.928 13.4988 11.4467 17.2775 12.4693 17.2775C12.8613 17.2775 13.032 17.1041 13.032 16.1268V11.6521C12.9027 9.61079 11.8187 9.43879 11.8187 8.70012C11.8324 8.50524 11.9215 8.32338 12.0672 8.19318C12.2128 8.06297 12.4035 7.99467 12.5987 8.00279H17.3773C18.0307 8.00279 18.2467 8.32812 18.2467 9.10945V15.1495C18.2467 15.8015 18.5267 16.0175 18.724 16.0175C19.116 16.0175 19.4173 15.8015 20.136 15.0841C21.6765 13.2054 22.935 11.1123 23.872 8.87079C23.9679 8.60166 24.1492 8.37128 24.3883 8.21481C24.6273 8.05833 24.911 7.98434 25.196 8.00412H28.2373C29.1493 8.00412 29.3427 8.46012 29.1493 9.11079C28.0432 11.5887 26.6744 13.9408 25.0667 16.1268C24.7387 16.6268 24.608 16.8868 25.0667 17.4735C25.368 17.9295 26.4347 18.8201 27.1507 19.6668C28.1933 20.7068 29.0587 21.9095 29.7133 23.2268C29.9747 24.0748 29.5387 24.5081 28.6707 24.5081Z" fill="#024FFA"/>
</svg>
